<?xml version="1.0" encoding="UTF-8"?><svg id="a" xmlns="http://www.w3.org/2000/svg" viewBox="0 0 512 135.44"><defs><style>.b{fill:#fef9f3;}</style></defs><polygon class="b" points="298.11 15.16 327.72 26.67 298.11 37.75 298.11 53.47 348.77 32.98 348.77 20.49 298.11 0 298.11 15.16"/><path class="b" d="M27.09,73.54c-14.18,0-24.56,6.32-25.4,19.51h15.72v-.28c.28-4.35,4.35-7.58,8.84-7.16,6.04,0,8.84,3.51,8.84,9.4v2.81h-7.16c-15.44,0-27.93,4.77-27.93,19.51v.56c0,11.93,8.84,17.26,19.51,17.26h0c6.6,.28,12.63-2.81,16.28-7.86v6.88h16v-39.58c-.42-15.16-10.81-21.05-24.7-21.05Zm-3.37,49.96c-5.61,0-8.14-2.81-8.14-6.88v-.56c0-5.33,4.07-7.58,12.21-7.58h6.6v5.61h0c.28,6.18-5.05,9.4-10.67,9.4Z"/><path class="b" d="M89.26,122.81c-7.86,0-11.93-5.33-11.93-17.26v-1.82c0-11.65,4.77-17.26,11.93-17.26,5.61,0,8.84,3.79,9.68,9.4h15.72c-1.26-15.44-12.63-22.32-25.82-22.32-15.72,0-28.21,10.67-28.21,30.74v.56c0,20.07,11.93,30.18,28.21,30.18h0c16,0,25.12-9.68,26.39-22.88h-15.02c-1.12,6.6-5.19,10.67-10.95,10.67Z"/><path class="b" d="M150.6,122.81c-7.86,0-11.93-5.33-11.93-17.26v-1.82c0-11.65,4.77-17.26,11.93-17.26,5.61,0,8.84,3.79,9.68,9.4h15.72c-1.26-15.44-12.63-22.32-25.82-22.32-15.72,0-28.21,10.67-28.21,30.74v.56c0,20.07,11.93,30.18,28.21,30.18h0c16,0,25.12-9.68,26.11-22.88h-14.74c-.98,6.6-5.33,10.67-10.95,10.67Z"/><path class="b" d="M212.49,123.09c-7.16,0-11.65-4.07-12.21-14.74h38.32v-6.88c0-19.51-12.21-27.93-26.95-27.93-16,0-28.21,10.95-28.21,30.74v1.26c0,19.79,11.65,29.89,28.63,29.89h0c15.44,0,24.84-8.42,26.39-19.79h-15.44c-.84,4.63-5.61,8.14-10.53,7.44Zm-.98-38.32c6.6,0,10.67,3.79,10.95,12.63h-22.03c1.26-9.4,6.03-12.21,11.09-12.63Z"/><path class="b" d="M283.09,73.54c-7.58-.28-14.46,3.51-17.96,10.11v-8.84h-16.28v59.09h16.28v-37.61c.28-5.33,5.05-9.68,10.39-9.4,6.03,0,8.84,3.09,8.84,10.11v36.91h16.7v-39.58c0-14.46-7.3-20.77-17.96-20.77Z"/><path class="b" d="M331.79,114.95v-27.93h11.37v-12.21h-11.37v-17.96l-16.28,6.88v10.95h-7.16v12.21h6.88v29.89c0,11.93,6.04,17.96,18.81,17.96,3.09,0,6.32-.28,9.4-1.26v-12.91c-1.82,.56-3.79,.98-5.61,.98-3.79,0-6.03-2.11-6.03-6.6Z"/><path class="b" d="M388.63,111.58v1.54c-.28,5.33-5.05,9.68-10.39,9.4-6.03,0-8.42-3.09-8.42-10.11v-37.75h-16.7v39.86c0,13.75,7.86,20.35,18.53,20.35,7.16,.28,13.75-3.51,17.26-10.11v8.84h16.7v-59.09h-16.7l-.28,37.05h0Z"/><path class="b" d="M433.82,85.47v-10.95h-16.28v59.09h16.28v-30.6c0-9.68,6.6-13.19,17.96-13.19v-16.28c-8.14,0-15.44,4.63-17.96,11.93Z"/><path class="b" d="M512,101.19c0-19.51-12.21-27.65-26.95-27.65-16,0-28.21,10.95-28.21,30.74v1.26c0,19.79,11.65,29.89,28.63,29.89h0c15.44,0,24.56-8.42,26.39-19.79h-15.44c-1.26,5.05-6.04,8.14-10.95,7.86-7.16,0-11.65-4.07-12.21-14.74h38.32v-7.58h.42Zm-38.32-3.79h0c1.26-9.68,6.04-12.63,11.37-12.63,6.6,0,10.67,3.79,10.95,12.63h-22.32Z"/></svg>