<?xml version="1.0" encoding="UTF-8"?><svg id="a" xmlns="http://www.w3.org/2000/svg" viewBox="0 0 597.75 66.73"><defs><style>.b{fill:#fef9f3;}</style></defs><path class="b" d="M42.16,31.42c1.2,.79,2.37,1.51,3.48,2.3,8.89,6.29,9.05,18.24,2.38,25.45-4.55,4.92-10.29,7.37-17,7.39-9.89,.03-19.77-.02-29.66-.03H0V.16c.44-.02,.89-.07,1.33-.07C10.68,.09,20.02-.01,29.36,.12c7.71,.12,14.07,3.18,18.06,9.95,4.15,7.06,1.98,16.1-4.67,20.9-.2,.14-.39,.29-.59,.44Zm-27.73,6.35v16.73c.15,.08,.23,.15,.3,.15,5.15,0,10.31,.16,15.45-.04,2.08-.06,4.06-.88,5.57-2.32,1.51-1.43,2.43-3.37,2.6-5.45,.15-2-.42-3.99-1.61-5.61-1.19-1.62-2.91-2.76-4.87-3.22-1.2-.28-2.49-.25-3.74-.25-4.52-.01-9.04,0-13.7,0Zm-.08-11.66c.28,.06,.57,.1,.86,.13,4.28,.02,8.55,.09,12.81,.04,4.19-.06,7.04-2.98,7.03-7.09-.01-4.1-2.88-6.98-7.07-7.03-4.19-.05-8.37,0-12.56-.03-.81,0-1.1,.25-1.08,1.07,.04,2.88,.02,5.77,.02,8.65v4.26Z"/><path class="b" d="M183.19,66.7h-1.55c-4.06,0-8.13-.04-12.19,.03-1.16,.02-1.76-.29-2.25-1.41-1.54-3.66-3.24-7.25-4.82-10.89-.3-.7-.63-1.02-1.45-1.02-9.93,.03-19.86,.03-29.79,0-.82,0-1.16,.33-1.47,1.02-1.63,3.71-3.33,7.4-4.94,11.12-.37,.85-.8,1.19-1.76,1.18-4.23-.06-8.46-.02-12.69-.03-.4,0-.81-.04-1.38-.07,.21-.54,.36-.96,.54-1.36,9.47-21.36,18.94-42.71,28.4-64.07,.4-.92,.87-1.21,1.86-1.2,4.28,.06,8.55,.04,12.83,0,.81,0,1.26,.18,1.6,.99,9.54,21.56,19.1,43.11,28.68,64.64,.1,.28,.2,.55,.38,1.07Zm-37.15-49.11l-10.11,22.52h20.09l-9.99-22.52Z"/><path class="b" d="M166.35,.03c4.99,0,9.81-.02,14.61,.04,.33,0,.78,.54,.95,.93,4.27,9.9,8.53,19.81,12.77,29.73,2.75,6.42,5.5,12.83,8.25,19.25,.18,.41,.38,.82,.68,1.44,.29-.61,.5-1.03,.69-1.46,7.03-16.27,14.06-32.54,21.08-48.81,.38-.88,.83-1.15,1.76-1.14,4.44,.05,8.87,.02,13.48,.02-.16,.46-.25,.81-.4,1.14-9.51,21.48-19.01,42.97-28.51,64.45-.32,.73-.71,.98-1.49,.97-4.44-.04-8.89-.04-13.33,0-.73,0-1.1-.22-1.41-.91-9.58-21.59-19.17-43.17-28.78-64.75-.1-.23-.17-.46-.34-.91Z"/><path class="b" d="M327.72,.18c4.87,0,9.52-.03,14.16,.05,.39,0,.93,.61,1.13,1.06,4.26,9.68,8.49,19.37,12.7,29.07,1.26,2.91,2.54,5.81,3.9,8.92,.26-.54,.46-.89,.62-1.26,5.36-12.16,10.7-24.33,16.04-36.5,.43-.98,.9-1.38,2.01-1.36,3.98,.08,7.96,.03,11.94,.03h1.46c-.23,.53-.39,.9-.56,1.26-7.9,16.6-15.8,33.21-23.69,49.82-.4,.86-.61,1.8-.63,2.74-.06,4.14-.03,8.27-.03,12.53h-14.36v-1.33c0-3.85,.02-7.69-.02-11.54,0-.74-.16-1.47-.47-2.15-7.86-16.67-15.74-33.34-23.65-49.99-.17-.37-.31-.76-.56-1.34Z"/><path class="b" d="M268.95,.31h52.15V13.03h-18.85v53.45h-14.42V13.12h-18.88V.31Z"/><path class="b" d="M101.13,66.48H59.83V.27h14.34V53.39h26.96v13.09Z"/><path class="b" d="M261.56,66.63h-14.2V.27h14.2V66.63Z"/><path class="b" d="M428.23,66.06c-10.31-.22-18.64-4.19-24.64-12.65-4.05-5.72-5.42-12.21-4.81-19.07,1.42-15.64,13.18-29.48,28.49-33.12,10.61-2.53,20.53-.95,28.77,6.82,7.24,6.82,9.87,15.37,8.67,25.08-1.86,15.15-14.24,28.67-29.16,31.94-2.4,.53-4.88,.67-7.33,.99Zm.64-4.67c1.7-.18,3.45-.19,5.11-.56,12.79-2.85,20.99-10.86,25.02-23.06,2.25-6.81,1.91-13.73-1.54-20.21-5.09-9.52-15.88-14.46-27.24-12.43-10.74,1.92-18.36,8.21-23.43,17.59-3.7,6.86-4.43,14.26-2.14,21.77,3.13,10.27,12.66,16.77,24.24,16.9Z"/><path class="b" d="M594.51,33.04c-.8,3.77-1.57,7.37-2.34,10.96-.47,2.17-.99,4.32-1.37,6.5-.19,1.2-.76,2.3-1.62,3.15-6.29,6.38-13.62,10.69-22.64,11.99-16.76,2.42-32.13-10.71-32.13-27.56,0-18.31,14.05-34.59,32.2-37.35,6.46-.98,12.7-.43,18.66,2.34,4.49,2.09,8.1,5.3,11.28,9.04,.45,.53,.75,1.18,1.21,1.89l-3.62,2.65c-.93-1.13-1.76-2.26-2.72-3.29-5.96-6.47-13.48-8.92-22.1-8.3-13.72,.98-26,11.35-29.18,24.71-1.51,6.33-1.49,12.62,1.62,18.58,5.14,9.84,15.78,14.65,26.96,12.33,6.13-1.27,11.29-4.3,15.91-8.38,.96-.82,1.61-1.94,1.83-3.18,.68-3.52,1.47-7.04,2.21-10.55,.04-.28,.06-.56,.06-.85h-16.27c.3-1.44,.5-2.75,.88-4,.1-.32,.8-.63,1.22-.64,5.74-.04,11.48-.03,17.22-.03h2.74Z"/><path class="b" d="M508.45,37.76c3.24,9.08,6.45,18.08,9.71,27.22-1.61,0-3.02,.06-4.44-.05-.33-.02-.76-.57-.89-.96-2.86-7.94-5.72-15.88-8.48-23.86-.42-1.2-.96-1.55-2.22-1.54-5.9,.07-11.82,.05-17.72,.02-.94,0-1.37,.18-1.58,1.22-1.61,7.99-3.32,15.95-4.95,23.94-.2,.97-.55,1.34-1.55,1.26-1.08-.09-2.17-.02-3.44-.02,.35-1.69,.66-3.27,.99-4.84,4.09-19.28,8.17-38.58,12.26-57.88,.15-.69,.3-1.12,1.15-1.12,7.84,.05,15.67-.05,23.51,.09,11.34,.2,20.46,11.34,13.77,24.61-3.06,6.07-8.42,9.6-14.86,11.53l-1.26,.39Zm-24.25-3.93c.21,.04,.42,.07,.63,.08,6.54,0,13.08,.1,19.6-.04,5.51-.11,10.14-2.36,13.79-6.48,3.09-3.5,4.22-7.65,3.63-12.23-.64-4.91-5.03-8.89-10.52-9.12-6.77-.28-13.57-.16-20.35-.24-.72,0-.91,.32-1.04,.94-.52,2.58-1.09,5.15-1.63,7.72-1.37,6.41-2.73,12.83-4.12,19.36Z"/><path class="b" d="M390.39,61.91c-.04,1.97-1.76,3.58-3.81,3.52-1.74-.05-2.95-1.27-2.9-2.95,.05-1.89,1.78-3.54,3.7-3.52,1.85,.01,3.03,1.17,3,2.95Z"/></svg>