<?xml version="1.0" encoding="UTF-8"?><svg id="a" xmlns="http://www.w3.org/2000/svg" viewBox="0 0 420.03 212.91"><defs><style>.b{fill:#fef9f3;}</style></defs><path class="b" d="M210.8,21.52l-33.72,21.52,33.72,21.52-33.72,21.52-33.72-21.7,33.72-21.52-33.72-21.34L177.08,0l33.72,21.52Zm-33.9,71.38l33.72-21.52,33.72,21.52-33.72,21.52-33.72-21.52Zm33.9-28.52l33.72-21.52-33.72-21.34L244.34,0l33.72,21.52-33.72,21.52,33.72,21.52-33.72,21.52-33.54-21.7Z"/><path class="b" d="M0,121.45H27.26c17.4,0,31.74,10.04,31.74,33v4.84c0,23.14-13.45,33.54-31.21,33.54H0V121.45Zm15.24,12.91v45.38h11.66c9.86,0,16.5-6.46,16.5-20.8v-3.77c0-14.35-6.99-20.8-17.04-20.8H15.24Zm51.83,.72h12.2l1.97,13.45c2.33-9.15,8.25-13.99,19.01-13.99h3.77v15.42h-6.28c-12.38,0-15.42,4.3-15.42,16.5v26.54h-15.07v-57.93h-.18Zm39.99,30.13v-1.61c0-19.37,12.38-29.95,29.23-29.95s29.23,10.58,29.23,29.95v1.61c0,19.01-11.66,29.23-29.23,29.23-18.65-.18-29.23-10.22-29.23-29.23Zm43.04-.18v-1.43c0-10.76-5.38-17.22-13.99-17.22s-13.99,5.92-13.99,17.22v1.43c0,10.4,5.38,16.32,13.99,16.32,8.61-.18,13.99-5.92,13.99-16.32Zm23.32-29.95h12.55l1.43,10.94c3.05-7.35,9.51-12.38,19.01-12.38,14.71,0,24.39,10.58,24.39,30.13v1.61c0,19.01-10.76,29.05-24.39,29.05-9.15,0-15.42-4.13-18.47-10.76v29.23h-14.71l.18-77.84Zm42.15,29.95v-1.26c0-11.48-5.92-17.22-13.81-17.22-8.43,0-13.99,6.46-13.99,17.22v1.08c0,10.22,5.38,16.68,13.81,16.68,8.61-.18,13.99-5.74,13.99-16.5Zm37.48,17.22l-1.25,10.58h-12.91V115.71h14.71v29.59c3.23-7.53,9.69-11.66,18.83-11.66,13.81,.18,24.03,9.68,24.03,28.87v1.79c0,19.19-9.69,30.13-24.39,30.13-9.69-.18-15.96-4.66-19.01-12.2Zm27.98-17.93v-1.43c0-10.58-5.74-16.5-13.81-16.5s-13.99,6.64-13.99,16.68v1.26c0,10.76,5.56,17.04,13.81,17.04,8.79,0,13.99-5.56,13.99-17.04Zm21.88,.9v-1.61c0-19.37,12.38-29.95,29.23-29.95s29.23,10.58,29.23,29.95v1.61c0,19.01-11.84,29.23-29.23,29.23-18.65-.18-29.23-10.22-29.23-29.23Zm43.22-.18v-1.43c0-10.76-5.38-17.22-13.99-17.22s-13.99,5.92-13.99,17.22v1.43c0,10.4,5.38,16.32,13.99,16.32,8.61-.18,13.99-5.92,13.99-16.32Zm34.97-2.15l-20.27-27.8h17.4l11.66,17.4,11.84-17.4h17.22l-20.62,27.62,21.7,30.13h-17.04l-13.27-19.19-12.91,19.19h-17.75l22.06-29.95Z"/></svg>