<?xml version="1.0" encoding="UTF-8"?><svg id="a" xmlns="http://www.w3.org/2000/svg" viewBox="0 0 390.61 96.89"><defs><style>.b{fill:#fef9f3;fill-rule:evenodd;}</style></defs><path class="b" d="M380.91,4.44h1.96c.61,0,1.37-.15,1.82,.61,.13,.3,.17,.63,.11,.95-.05,.32-.2,.62-.42,.86q-.15,.15-.45,.15c-.44,.16-.91,.21-1.37,.15h-1.65v-2.72Zm1.65,3.94l2.41,4.07h1.52l-2.56-4.07c.43-.04,.84-.17,1.21-.38,.37-.21,.7-.49,.96-.84,.3-.83,.3-1.74,0-2.57-.18-.4-.51-.72-.91-.89-.3-.3-.59-.3-1.2-.46h-4.35V12.44h1.37v-4.07h1.55Zm-6.02-2.61c.17-.66,.47-1.27,.89-1.8,.42-.54,.88-1.05,1.37-1.52,.85-.59,1.82-.97,2.84-1.12,1.02-.15,2.06-.07,3.05,.23,.59,.21,1.15,.51,1.65,.89,.58,.42,1.09,.94,1.5,1.52,.6,.87,.99,1.86,1.15,2.91,.16,1.04,.08,2.11-.23,3.12-.27,.62-.58,1.23-.91,1.83-.42,.57-.93,1.08-1.5,1.5-.81,.6-1.76,.99-2.76,1.15-1,.16-2.02,.08-2.98-.24-.66-.18-1.27-.49-1.81-.91-.49-.47-.95-.97-1.37-1.5-.59-.88-.98-1.87-1.13-2.92-.15-1.05-.07-2.11,.24-3.12Zm8.59,9.65c.81-.22,1.58-.57,2.28-1.04,.64-.58,1.24-1.19,1.8-1.83,.69-1.03,1.13-2.2,1.31-3.43,.18-1.22,.09-2.47-.27-3.66-.28-.76-.63-1.48-1.04-2.17-.53-.63-1.13-1.18-1.8-1.65-1.01-.79-2.21-1.31-3.48-1.52-1.27-.21-2.57-.11-3.78,.31-.81,.24-1.55,.65-2.17,1.22-.71,.42-1.32,.98-1.8,1.65-.72,1.02-1.19,2.19-1.38,3.42-.19,1.23-.08,2.49,.31,3.67,.23,.78,.59,1.51,1.07,2.17,.52,.68,1.13,1.3,1.8,1.83,1.03,.76,2.22,1.25,3.49,1.43s2.55,.05,3.75-.39h-.09Z"/><path class="b" d="M277.19,37.05l-6.33,59.34h30.79l6.65-59.34h-31.11Zm60.53-.3l-6.78,59.64h30.44l7.11-59.64h-30.77ZM10.31,2.94l-3.02,25.81H88.19l2.87-25.81H10.31Zm-3.78,33.81L0,96.82H80.75l2.57-25.96H34.77l1.52-10.87h48.16l2.57-23.24H6.52Zm271.78-8h90.97c.61-4.98,1.07-9.96,1.22-13.05,.15-3.09,0-4.22,0-5.28s-.3-1.5-.46-2.17c-.17-.51-.38-1.01-.61-1.5-.15-.41-.41-.78-.74-1.07-.22-.38-.54-.69-.91-.91-.32-.29-.68-.54-1.07-.74-.43-.15-.89-.3-1.5-.46-.76-.34-1.58-.5-2.41-.46-1.1-.13-2.22-.18-3.33-.15h-78.27l-3.02,25.81,.13-.02Zm-91.62,8.31l-6.78,59.34h30.44l4.07-36.4h45.94c1.06,.03,2.12-.02,3.17-.15,1.04-.15,1.8-.3,2.41-.43,.58-.11,1.14-.32,1.65-.61,.48-.19,.94-.45,1.35-.76l.91-.91c.46-.28,.61-.74,.91-1.2,.37-.55,.63-1.16,.76-1.8,.5-1.52,.8-3.1,.89-4.7,.46-2.87,.76-7.54,1.07-12.37h-86.8Zm-94.34-.3c-.29,2.66-.44,5.33-.46,8,0,1.72,.1,3.43,.3,5.13,.14,1.08,.39,2.14,.74,3.17,.3,.76,.61,1.5,.91,2.17,.26,.61,.62,1.18,1.07,1.67,.32,.47,.72,.88,1.2,1.2,.43,.34,.89,.64,1.37,.91,.54,.37,1.16,.62,1.8,.74,1.51,.5,3.09,.76,4.67,.76h44.38v10.11h-59.75l-3.02,26.26h73.36c1.11,.03,2.22-.03,3.33-.15,.91-.15,1.96-.43,2.87-.59,.93-.29,1.84-.64,2.72-1.07,1.68-.79,3.21-1.87,4.52-3.17,.74-.79,1.39-1.65,1.96-2.57,.76-1.1,1.42-2.26,1.98-3.48,.83-2.14,1.43-4.36,1.8-6.63,.75-4.5,1.25-9.03,1.5-13.59,.76-4.35,1.22-8.89,1.52-11.91,.13-1.91,.08-3.84-.15-5.74-.15-1.22-.46-2.17-.61-3.02-.15-.85-.61-1.5-.91-2.17-.35-.59-.75-1.15-1.2-1.67-.72-.99-1.65-1.82-2.72-2.41-.51-.32-1.07-.57-1.65-.74-.61-.3-1.22-.46-1.98-.76-1.69-.32-3.41-.47-5.13-.46H92.34ZM262.91,2.78H109.19c-1.26,.01-2.52,.11-3.76,.3-1.07,.15-1.83,.3-2.57,.46-.74,.15-1.22,.46-1.83,.74-.96,.52-1.82,1.18-2.57,1.98-.38,.53-.73,1.08-1.04,1.65-.3,.61-.61,1.37-1.07,2.41-.58,1.72-.99,3.49-1.22,5.28-.59,3.17-1.2,8.15-1.8,13.05h181.14c.91-4.52,1.52-9.2,1.83-12.07,.27-1.7,.32-3.42,.15-5.13-.15-.91-.15-1.67-.3-2.17-.24-.49-.45-1-.61-1.52-.52-.79-1.12-1.52-1.8-2.17-.35-.34-.76-.6-1.22-.76-.45-.33-.96-.58-1.5-.74-.61-.15-1.22-.46-1.98-.61-.76-.15-1.65-.3-2.72-.46-1.07-.15-2.17-.15-3.46-.15l.04-.09Z"/></svg>