<?xml version="1.0" encoding="UTF-8"?><svg id="a" xmlns="http://www.w3.org/2000/svg" viewBox="0 0 450.06 117.08"><defs><style>.b{fill:#fef9f3;}</style></defs><path class="b" d="M255.77,0V37.76c.59-.26,1.13-.46,1.63-.73,5.93-3.05,12.61-4.35,19.25-3.73,3.97,.32,7.82,1.49,11.3,3.44,3.48,1.94,6.49,4.61,8.85,7.83,4.77,6.25,7.6,13.76,8.15,21.6,1.02,9.09-.27,18.29-3.75,26.75-5.48,12.77-15.34,20.22-28.83,23-7.11,1.34-14.4,1.49-21.56,.42-5.54-.73-11.05-1.78-16.57-2.66-1.32-.21-1.82-.75-1.8-2.21,.26-20.44,.51-40.89,.63-61.33,.06-8.41-.11-16.83-.37-25.24-.13-2.95-.53-5.88-1.19-8.75-.88-4.04-3.71-5.95-7.72-6.42-2.06-.23-2.38-.49-2.08-2.38,.06-.28,.19-.54,.38-.76,.18-.22,.42-.4,.68-.51,10.57-2.01,21.14-4,31.72-5.95,.39-.02,.82-.02,1.27-.11Zm-.18,68.31h-.43c.25,13.15,.5,26.31,.76,39.46,.06,2.88,0,2.93,2.81,3.31,2.24,.43,4.54,.29,6.71-.4,2.17-.7,4.13-1.93,5.69-3.58,2.49-2.7,4.43-5.86,5.71-9.3,3.71-9.38,4.67-19.21,4.14-29.17-.18-5.66-1.45-11.24-3.76-16.41-1.35-3.25-3.55-6.09-6.36-8.21-4.46-3.1-9.2-2.74-14.08-1.19-.39,.08-.73,.3-.95,.62-.22,.33-.31,.72-.24,1.11,.01,7.94,0,15.88,0,23.8v-.04Z"/><path class="b" d="M70.74,39.67v37.81c-.17,.08-.34,.13-.52,.18q-3.57,.19-4.51-3.23c-.67-3.12-2.02-6.04-3.97-8.56-.94-1.15-2.12-2.09-3.45-2.74-1.34-.65-2.8-.99-4.29-1.01-3.83-.14-7.66-.36-11.48-.62-1.38-.1-1.81,.43-1.76,1.75,.33,8.72,.61,17.39,.87,26.02-.02,4.53,.65,9.03,2,13.36,.54,1.97,1.7,3.71,3.3,4.97,1.6,1.27,3.56,1.99,5.6,2.07,1.59,.14,3.18,.57,4.76,.83,2.14,.36,1,2.02,1.19,3.1,.19,1.08-.74,1.08-1.5,1.08H1.71c-.7,0-1.72,.21-1.57-1,.15-1.21-.92-2.84,1.19-3.27,1.69-.33,3.38-.7,5.07-.98,3.69-.58,5.95-2.83,7.27-6.16,1.49-3.94,2.23-8.12,2.2-12.33,.3-16.98,.64-33.98,.58-50.97,0-7.3-.9-14.6-1.53-21.89-.22-1.59-.68-3.15-1.34-4.61-1.66-4.06-4.89-5.95-9.15-6.36-1.13-.07-2.26-.19-3.38-.38-.22-.08-.42-.2-.58-.37-.16-.17-.28-.38-.34-.6C-.03,4.89-.03,4.02,.11,3.17c.09-.24,.22-.45,.4-.64,.18-.18,.39-.33,.62-.42,.48-.09,.96-.09,1.44,0H90.85c.12,3.13,.29,6.08,.34,9.03,.14,6.96,.2,13.91,.37,20.86,.05,.24,.04,.49-.02,.73-.06,.24-.16,.47-.31,.67-.15,.2-.34,.36-.55,.48-.22,.12-.45,.2-.7,.22-3.44,.96-3.41,1.02-4.66-2.38-2.07-5.59-4.54-10.96-8.8-15.28-1.91-2.03-4.22-3.64-6.78-4.74-2.56-1.1-5.31-1.68-8.1-1.68h-18.47c-.37,0-.74,0-1.19,.08-.13,.58-.21,1.17-.26,1.76-.26,10.62-.52,21.25-.76,31.87-.07,3.45-.07,6.9-.21,10.35-.07,1.57,.55,1.91,2.01,1.8,3.28-.34,6.57-.51,9.86-.51,5.95,.09,9.51-2.94,11.62-8.08,.8-2.05,1.44-4.16,1.89-6.31,.21-.94,.54-1.3,1.46-1.19,.93,.11,2.02-.12,3.15-.12Z"/><path class="b" d="M80.39,76.47c0-11.55,2.2-20.62,7.9-28.64,6.39-8.98,15.22-13.94,26.1-15.28,6.91-1.01,13.95-.41,20.59,1.76,4.58,1.46,8.77,3.93,12.26,7.22,3.5,3.29,6.22,7.33,7.95,11.81,6.02,14.97,6.12,29.99-1.64,44.42-6.1,11.36-16.08,17.36-28.81,18.86-6.64,.9-13.41,.3-19.79-1.76-10.7-3.57-17.72-11.12-21.57-21.64-1.96-5.37-2.97-11.03-2.99-16.74Zm24.03-3c.14,2.95,.19,5.95,.43,8.87,.24,2.93,.52,5.95,1.03,8.97,.99,5.64,2.5,11.12,5.95,15.85,.82,1.21,1.89,2.23,3.13,3,1.24,.77,2.64,1.26,4.09,1.45,1.45,.19,2.92,.06,4.32-.36,1.4-.43,2.69-1.14,3.79-2.11,2.07-1.91,3.62-4.31,4.52-6.98,2.76-7.27,3.14-14.91,3.48-22.54,.35-7.16-.07-14.34-1.27-21.41-.99-5.59-2.38-11.04-5.79-15.76-5.07-7.14-13.89-6.85-18.33,.65-1.11,1.9-1.98,3.93-2.58,6.05-2.32,7.92-2.65,16.1-2.77,24.31Z"/><path class="b" d="M380.8,99.39c.34,.45,.7,.88,1.08,1.28,.92,.88,.81,1.64,0,2.62-3.2,4.04-7.31,7.27-12,9.42-15.21,6.83-29.81,5.86-43.22-4.4-7.84-6.01-12.04-14.44-13.72-24.02-1.86-9.69-.8-19.72,3.06-28.8,5.49-12.74,15.01-20.61,28.79-22.82,7.21-1.19,14.43-.89,21.2,2.38,8.71,4.19,13.58,11.48,15.9,20.51,1.11,4.34,1.37,8.9,2.02,13.36,.2,1.34-.36,1.74-1.7,1.74h-44.07c-2.49,0-2.55,0-2.45,2.51,.31,8.08,1.7,15.86,6.77,22.5,4.47,5.95,10.54,8.81,17.84,9.51,3.63,.46,7.32,.18,10.84-.81,3.52-.99,6.81-2.68,9.67-4.97Zm-20.7-35.11c.06-.39,.1-.79,.11-1.19-.21-3.65-.27-7.33-.74-10.94-.34-3.99-1.59-7.84-3.66-11.26-.51-.88-1.2-1.64-2.02-2.23-.83-.59-1.77-.99-2.77-1.19s-2.03-.16-3.01,.08c-.99,.24-1.91,.7-2.7,1.33-2.41,1.84-4.27,4.31-5.38,7.14-2.3,5.23-3.63,10.84-3.94,16.54-.17,2.45-.18,2.45,2.26,2.38,5.89-.12,11.76-.23,17.65-.37,1.39-.06,2.77-.2,4.21-.29Z"/><path class="b" d="M442.7,58.16c-1.36-3.09-2.58-6.14-4.02-9.07-1.49-3.32-3.83-6.19-6.78-8.32-1.72-1.27-3.69-2.16-5.78-2.61-2.09-.45-4.25-.45-6.35,0-2.17,.52-4.13,1.69-5.61,3.35-1.49,1.66-2.43,3.74-2.71,5.95-.76,5.05,1.09,8.81,5.11,11.73,4.46,3.22,9.51,5.24,14.54,7.34,4.6,1.91,9.05,4.04,12.76,7.49,1.97,1.85,3.54,4.08,4.61,6.56,1.06,2.48,1.6,5.16,1.58,7.86,.2,6.77-1.45,12.89-5.94,18.11-4.5,5.22-10.25,7.93-16.79,9.32-7.32,1.42-14.85,1.42-22.17,0-4.76-.82-9.41-2.18-14.1-3.31-.21-.02-.42-.09-.6-.2-.19-.1-.35-.24-.48-.41-.13-.17-.23-.36-.29-.57s-.07-.42-.05-.63c-.06-6.96-.14-13.93-.37-20.87-.06-2.06,1.47-1.76,2.56-2.19,1.33-.51,1.19,.75,1.46,1.37,1.99,5.09,4.23,10.06,8,14.12,5.04,5.41,11.23,7.54,18.46,5.66,2.14-.52,4.09-1.66,5.59-3.28,1.5-1.61,2.5-3.63,2.88-5.81,1.11-4.91-.26-9.18-4.47-11.89-3.62-2.23-7.42-4.14-11.37-5.71-4.47-1.89-9.05-3.47-13.08-6.39-6.61-4.86-9.01-11.58-8.49-19.52,.68-10.3,7.66-18.8,17.84-22.19,6.65-2.21,13.43-2.25,20.29-1.68,5.14,.43,10.2,1.53,15.04,3.28,.52,.12,.98,.43,1.28,.87,.3,.44,.43,.98,.35,1.51,0,5.4,.19,10.79,.29,16.17q.08,3.18-3.18,3.94Z"/><path class="b" d="M207.73,110.67c.08,.15,.15,.32,.19,.49,0,4.35,.46,3.51-3.25,3.57h-42.44c-.69,0-1.89-.18-1.97-.5-.16-1.06-.16-2.13,0-3.19,0-.15,.5-.33,.78-.4,1-.21,2-.43,3.01-.56,1.39-.09,2.72-.64,3.77-1.56,1.05-.92,1.78-2.16,2.06-3.52,.77-3.52,1.2-7.1,1.3-10.7,.26-9.81,.37-19.62,.33-29.45-.01-4.68-.32-9.36-.92-14.01-.78-6.09-2.69-7.75-8.71-8.32-1.4-.13-1.87-.63-1.81-2,0-.98,.36-1.45,1.32-1.64,6.06-1.2,12.12-2.41,18.17-3.64l13.75-2.79c.25,0,.51-.07,.94-.13v17.98c.45-.75,.78-1.19,1.05-1.75,2.51-4.91,5.61-9.35,10.22-12.53,5.95-4.11,12.36-5.34,19.3-2.69,1.44,.55,1.8,1.19,1.19,2.76-2.38,6.1-4.65,12.26-6.96,18.4-.18,.49-.39,.96-.62,1.53-1.51-.75-2.85-1.55-4.29-2.1-5.57-2.2-11.17-2.6-16.78-.12-2.16,.95-3.44,2.26-3.4,4.99,.11,9.11-.26,18.23-.13,27.35,.11,5.67,.51,11.33,1.2,16.96,.61,4.96,3.19,6.96,8.17,7.14,1.51,.13,3.01,.37,4.53,.44Z"/></svg>