<?xml version="1.0" encoding="UTF-8"?><svg id="a" xmlns="http://www.w3.org/2000/svg" viewBox="0 0 512.65 168.16"><defs><style>.b{fill:#fef9f3;}</style></defs><path class="b" d="M126.05,59.36h-60.34v17.75h42.94c-2.1,24.87-22.8,35.51-42.36,35.51-25.01,0-46.83-19.69-46.83-47.26S40.26,17.8,66.35,17.8c20.13,0,31.98,12.83,31.98,12.83l12.44-12.87S94.81,0,65.71,0C28.67,0,0,31.27,0,65.04s26.96,65.38,66.68,65.38c34.91,0,60.47-23.91,60.47-59.28,0-7.46-1.08-11.77-1.08-11.77h-.02Z"/><path class="b" d="M177.12,46.51c-24.55,0-42.13,19.17-42.13,41.57s17.06,42.26,42.42,42.26c22.96,0,41.77-17.55,41.77-41.77,0-27.76-21.88-42.06-42.06-42.06Zm.24,16.46c12.07,0,23.51,9.76,23.51,25.48s-11.4,25.43-23.56,25.43c-13.38,0-23.93-10.71-23.93-25.55s10.42-25.36,23.98-25.36Z"/><path class="b" d="M268.25,46.51c-24.55,0-42.14,19.17-42.14,41.57s17.06,42.26,42.42,42.26c22.96,0,41.77-17.55,41.77-41.77,0-27.76-21.88-42.06-42.06-42.06Zm.24,16.46c12.07,0,23.51,9.76,23.51,25.48s-11.4,25.43-23.57,25.43c-13.38,0-23.93-10.71-23.93-25.55s10.42-25.36,23.99-25.36Z"/><path class="b" d="M358.13,46.55c-22.51,0-40.24,19.73-40.24,41.9,0,25.23,20.53,41.97,39.85,41.97,11.92,0,18.3-4.74,22.99-10.18v8.29c0,14.46-8.78,23.12-22.03,23.12s-19.22-9.52-21.45-14.92l-16.11,6.74c5.7,12.08,17.22,24.69,37.7,24.69,22.4,0,39.48-14.11,39.48-43.7V48.04h-17.58v8.14c-5.4-5.82-12.79-9.62-22.6-9.62h0Zm1.63,16.44c11.04,0,22.39,9.43,22.39,25.54s-11.32,25.39-22.63,25.39c-12.01,0-23.19-9.76-23.19-25.24s11.61-25.7,23.43-25.7h0Z"/><path class="b" d="M474.89,46.48c-21.24,0-39.1,16.91-39.1,41.86,0,26.43,19.89,42.06,41.14,42.06,17.73,0,28.62-9.71,35.11-18.4l-14.51-9.64c-3.76,5.83-10.05,11.54-20.54,11.54-11.78,0-17.2-6.45-20.56-12.7l56.2-23.32-2.92-6.87c-5.41-13.38-18.07-24.54-34.84-24.54Zm.73,16.12c7.66,0,13.17,4.07,15.51,8.95l-37.53,15.69c-1.62-12.15,9.89-24.64,22.02-24.64Z"/><path class="b" d="M427.25,4.33h-17.21V127.88h17.21V4.33Z"/></svg>