<?xml version="1.0" encoding="UTF-8"?><svg id="a" xmlns="http://www.w3.org/2000/svg" viewBox="0 0 200.45 132.26"><defs><style>.b{fill:#fef9f3;}</style></defs><path class="b" d="M140.86,4.01c7.28-3.61,10.92-3.11,10.98,.5-.06,5.2-.42,10.39-1.09,15.55-2.71,24.6-7.22,44.72-7.56,70.01,11.88-30.79,21.77-52.19,34.71-78.53,4.07-8.4,6.69-6.84,10.01-8.33,13.06-5.82,13.56-2.24,11.82,4.85-6.22,26.31-22.49,109.16-24.88,121.91-.72,3.7-4.73,2.15-5.75,.68-4.67-6.41-9.89-6.5-9.33-10.79,2.89-21.27,13.37-74.64,16.11-87.08-13.93,28.58-28.36,64.28-35.8,84.53-1.55,4.29-4.45,3.98-6.22,.84-2.52-4.42-7.37-6.69-8.18-11.91-2.55-16.61,2.89-48.24,3.67-68.42-7.59,21.77-20.31,64.35-25.91,83.5-2.3,7.96-9.95,6.66-7.93-1.09,8.49-32.19,26.75-89.13,34.65-109.6,1.8-4.7,6.66-4.7,10.7-6.62Z"/><path class="b" d="M94.65,.06c-2.49-.59-9.61,3.11-14,3.98-.69,.22-1.32,.59-1.85,1.07-.54,.48-.96,1.07-1.26,1.73-7,16.11-13.28,31.5-18.66,45.5-6.97,1.18-15.11,2.77-24.26,4.82,6.53-16.76,13.12-33.31,19.56-49.23,3.11-7.84-5.16-8.55-8.4-.62-4.39,10.29-12.25,29.73-20.99,52.12-6.41,1.59-13.19,3.36-20.31,5.41-5.16,1.49-5.38,2.86-3.11,5.97,1.21,1.71,3.76,1.52,4.94,2.77,3.11,3.11,4.82,7,10.23,7.56-4.82,12.88-9.64,26.12-14,38.88-2.71,8.02,5.07,9.67,8.05,1.18,4.82-13.65,9.92-27.49,15.15-41.3,4.32-1,14.87-3.27,24.6-5.38-7.74,21.15-12.81,37.32-14.71,45.03-.13,.5-.15,1.03-.05,1.53,.09,.51,.29,.99,.58,1.42,2.61,3.79,5.1,3.95,8.46,8.65,.34,.42,.78,.73,1.29,.91,.51,.17,1.05,.2,1.57,.08,.52-.12,1-.39,1.37-.78,.37-.38,.63-.86,.74-1.39,7.15-21.77,14.52-41.86,21.37-60.05,2.19-.3,4.31-1.03,6.22-2.16s3.58-2.61,4.92-4.38c5.57-8.33,7.18-6.62,8.52-9.17,1.68-3.11,.56-6.22-5.41-5.41,0,0-2.24,0-6.22,.65,6.59-17.01,12.44-31.44,16.51-42.42,1.43-3.7,1.62-6.41-.68-6.97"/><path class="b" d="M84.88,110.29c1.56,3.89,6.22,2.71,4.54-1.96-1.68-4.67-6.5-19.19-7.71-23.79-1.65-6.22,5.47-4.54,1.87-.47-3.11,3.51-5.16,4.91-10.92,11.6-5.75,6.69-4.04,14.8,1.9,16.64,6.69,2.08,12.6-5.29,16.27-10.73,3.67-5.44,0-8.3-3.48-5.19-2.36,2.42-4.91,4.66-7.62,6.69-2.18,1.34-3.92,0-1-4.11,3.39-4.63,7.15-8.52,9.98-12.91,5.75-8.96-5.6-14.09-10.51-8.3-.98,1.22-1.61,2.67-1.83,4.21-.22,1.54-.02,3.12,.58,4.56,1.18,4.17,5.44,17.51,7.93,23.76Z"/></svg>