<?xml version="1.0" encoding="UTF-8"?><svg id="a" xmlns="http://www.w3.org/2000/svg" viewBox="0 0 393.71 181.11"><defs><style>.b{fill:#fef9f3;}</style></defs><path class="b" d="M369.1,0h-82.02l-24.61,24.61V106.63l24.61,24.6h82.02l24.61-24.6v-24.61l-8.2-8.21h-41.02v8.21h-32.81V49.21h32.81v8.1h41.02l8.2-8.1V24.61"/><path class="b" d="M123.04,0h-32.8l-8.21,8.21V41.01L41.02,0H8.21L0,8.21V123.03l8.21,8.21H41.02l8.2-8.21v-32.8l41.01,41.01h32.8l8.21-8.21V8.21"/><path class="b" d="M180.46,131.24h32.82l8.2-8.2v-24.6l41.02-41.02V8.21L254.28,.01h-32.81l-8.2,8.19V24.61l-16.41,16.41-16.41-16.41V8.21L172.25,.01h-32.81l-8.19,8.19V57.42l41.01,41.02v24.6"/><path class="b" d="M379.01,1.18V.01h5.95V1.18h-2.29V6.99h-1.38V1.18h-2.29ZM388.14,.01l1.76,4.99L391.67,.01h2.01V6.96h-1.26V1.36l-1.89,5.63h-1.11l-1.95-5.63V6.99h-1.26V.04l1.94-.03Z"/><path class="b" d="M.34,148.08H8.76v11.79h11.11v-11.79h8.42v32.35h-8.42v-13.32H8.76v13.32H.34"/><path class="b" d="M39.35,170.56c.13,3.2,1.99,5.34,5.25,5.34,1.86,0,3.67-.87,4.42-2.58h7.2c-1.41,5.43-6.43,7.78-11.69,7.78-7.66,0-12.87-4.61-12.87-12.49,0-7.2,5.75-12.37,12.68-12.37,8.42,0,12.63,6.34,12.28,14.33h-17.29Zm9.58-4.31c-.14-2.63-2-4.8-4.58-4.8-2.72,0-4.53,1.95-4.98,4.8h9.56Z"/><path class="b" d="M59.23,164.16c0-1.28,.34-2.54,.98-3.65,.65-1.11,1.57-2.03,2.69-2.66,2.08-1.18,4.8-1.63,7.47-1.63,5.57,0,10.97,1.22,10.97,7.88v10.29c0,1.99,0,4.17,.9,6.02h-7.74c-.24-.72-.4-1.46-.46-2.22-1.99,2.08-4.93,2.89-7.75,2.89-4.48,0-8.02-2.25-8.02-7.11,0-7.66,8.34-7.06,13.69-8.16,1.31-.27,2.03-.72,2.03-2.17,0-1.77-2.13-2.44-3.71-2.44-2.13,0-3.49,.94-3.84,2.94h-7.21Zm9.95,12.19c3.67,0,4.89-2.08,4.71-6.94-1.09,.69-3.08,.81-4.76,1.26-1.68,.45-3.16,1.14-3.16,2.99s1.5,2.69,3.21,2.69Z"/><path class="b" d="M93.48,148.08h-7.7v32.34h7.7v-32.34Z"/><path class="b" d="M112.18,161.89h-4.76v10.7c0,1.86,1.1,2.27,2.77,2.27,.63,0,1.31-.08,1.99-.08v5.68c-1.4,.04-2.81,.22-4.2,.22-6.58,0-8.25-1.89-8.25-8.29v-10.49h-3.91v-4.97h3.91v-7.12h7.69v7.12h4.76"/><path class="b" d="M114.72,148.08h7.7v12.05h.09c1.17-2.4,4.35-3.9,7.16-3.9,7.83,0,8.47,5.68,8.47,9.1v15.09h-7.72v-11.36c0-3.22,.37-6.48-3.84-6.48-2.9,0-4.17,2.46-4.17,5.05v12.8h-7.7"/></svg>