<?xml version="1.0" encoding="UTF-8"?><svg id="a" xmlns="http://www.w3.org/2000/svg" viewBox="0 0 144.12 119.73"><defs><style>.b{fill:#fef9f3;}</style></defs><path class="b" d="M112.43,34.21c-2.63,1.15-5.39,1.94-8.22,2.37,1.31-.23,3.27-2.64,4.04-3.62,1.22-1.48,2.14-3.19,2.72-5.03,0-.13,.13-.32,0-.42-.07-.04-.14-.06-.22-.06s-.15,.02-.22,.06c-3.08,1.67-6.35,2.95-9.74,3.8-.12,.04-.24,.04-.36,0-.12-.03-.23-.09-.31-.18-.26-.32-.54-.61-.84-.89-1.41-1.22-3-2.21-4.71-2.92-2.3-.93-4.77-1.33-7.24-1.18-2.4,.14-4.74,.78-6.87,1.9-2.17,1.12-4.09,2.67-5.63,4.57-1.58,1.96-2.71,4.25-3.3,6.7-.52,2.32-.57,4.72-.17,7.06,0,.4,0,.46-.34,.4-13.38-2.01-24.4-6.85-33.48-17.23-.38-.44-.6-.44-.92,0-3.94,5.98-2.03,15.56,2.89,20.28,.66,.67,1.34,1.3,2.06,1.9-2.26-.19-4.45-.84-6.46-1.9-.39-.27-.6-.11-.62,.34-.05,.63-.05,1.27,0,1.9,.4,3.05,1.58,5.93,3.44,8.36,1.86,2.43,4.32,4.32,7.14,5.47,.69,.3,1.41,.52,2.14,.66-2.08,.42-4.22,.49-6.32,.19-.47,0-.64,.15-.47,.59,2.8,7.69,8.8,9.98,13.31,11.27,.6,.11,1.22,.11,1.88,.25l-.11,.11c-1.5,2.3-6.68,4.02-9.08,4.88-4.42,1.59-9.14,2.2-13.81,1.78-.73-.11-.9-.09-1.09,0-.19,.09,0,.3,.21,.49,.94,.63,1.88,1.2,2.87,1.73,2.93,1.6,6.03,2.87,9.23,3.8,16.57,4.63,35.26,1.21,47.71-11.29,9.78-9.81,13.14-23.36,13.14-36.93,0-.53,.62-.82,.98-1.1,2.48-1.95,4.68-4.25,6.51-6.83,.28-.38,.42-.84,.41-1.31,.19-.27,.19-.13-.13,.02Z"/></svg>