<?xml version="1.0" encoding="UTF-8"?><svg id="a" xmlns="http://www.w3.org/2000/svg" viewBox="0 0 443.83 111.56"><defs><style>.b{fill:#fef9f3;}</style></defs><path class="b" d="M143.29,43.69c0-7.98-7.72-16.38-21.15-16.38-15.08,0-31.55,11.01-34.07,33.03-2.6,22.28,11.27,32.16,25.23,32.16s21.24-5.46,28.69-12.66c-6.42-8.06-14.74-4.33-16.3-3.55-1.73,.87-3.99,2.08-8.58,2.08-5.37,0-10.84-2.43-10.84-12.48,34.41-3.47,37.01-14.3,37.01-22.19Zm-17.08,1.3c-.26,2.51-1.21,6.67-18.64,9.1,3.64-13.09,10.75-14.04,13.96-14.04,3.03-.09,4.94,2.25,4.68,4.94Zm-58.43,2.08s-7.46,23.32-7.98,25.23c-.26-1.99-5.63-43.78-5.63-43.78-12.66,0-19.42,9.02-22.97,18.46,0,0-9.02,23.32-9.8,25.31-.09-1.82-1.39-25.05-1.39-25.05-.78-11.53-11.44-18.64-20.02-18.64l10.4,63.28c13.26-.09,20.37-9.02,24.1-18.46,0,0,7.98-20.63,8.32-21.5,.09,.87,5.72,40.05,5.72,40.05,13.26,0,20.46-8.41,24.27-17.6l18.64-45.77c-13.18,0-20.11,8.93-23.66,18.46Zm124.31-19.94c-8.15,0-14.48,4.42-19.68,11.01v-.09L177.1,0c-10.84,0-19.68,9.45-21.41,23.49l-8.23,67.96c6.24,0,12.92-1.82,16.47-6.41,3.21,4.16,7.97,7.45,15.08,7.45,18.38,0,30.95-21.32,30.95-41.26-.17-18.38-9.02-24.1-17.86-24.1Zm-1.73,32.68c-1.91,11.18-8.15,18.72-14.13,18.72s-8.58-2.69-8.58-2.69c1.13-9.8,1.91-15.78,4.07-20.89,2.17-5.2,7.46-13.44,12.83-13.44s7.71,7.11,5.81,18.29Zm65.27-31.21h-12.83l.09-.69c.87-8.32,2.86-12.74,9.36-13.44,4.42-.43,6.41-2.77,6.93-5.29,.35-1.99,1.56-8.84,1.56-8.84-25.66-.17-33.81,10.92-35.89,27.83l-.09,.35h-.26c-4.16,0-8.76,4.68-9.54,10.75l-.26,2.17h8.58l-7.19,59.38-2.17,10.66c.26,0,.61,.09,.87,.09,12.05-.43,19.68-9.97,21.41-23.75l5.63-46.38h3.99c3.99,0,8.58-3.99,9.36-10.58l.43-2.25Zm66.57-1.13c-14.74,0-28.69,10.84-33.03,27.91-4.33,17.08,2.17,37.27,23.92,37.27s34.24-21.06,34.24-38.57-11.79-26.61-25.14-26.61Zm5.98,31.73c-.78,7.72-4.16,19.5-13.52,19.5s-8.06-13.7-7.11-20.28c.95-6.93,4.85-16.9,13.26-16.9,7.54,.09,8.23,9.02,7.37,17.68Zm92.15-12.14s-7.46,23.32-7.98,25.23c-.26-1.99-5.63-43.78-5.63-43.78-12.66,0-19.42,9.02-22.97,18.46,0,0-9.02,23.32-9.8,25.31-.09-1.82-1.39-25.05-1.39-25.05-.78-11.62-11.44-18.72-20.02-18.72l10.4,63.28c13.26-.09,20.37-9.01,24.1-18.46,0,0,7.98-20.63,8.23-21.5,.09,.87,5.72,40.05,5.72,40.05,13.26,0,20.46-8.41,24.27-17.6l18.55-45.68c-13.09,0-20.02,8.93-23.49,18.46ZM267.77,.35l-10.75,86.77-2.17,10.75c.26,0,.61,.09,.87,.09,11.62-.17,19.85-10.32,21.32-23.15l6.24-49.84c1.82-15.17-7.28-24.62-15.52-24.62Z"/></svg>